<svg width="24" height="24" viewBox="0 0 24 24" fill="none" xmlns="http://www.w3.org/2000/svg">
<path d="M19 12.475V8.69498C19 5.15998 16.125 2.29498 12.585 2.29498H11.42C7.875 2.29498 5.005 5.15998 5.005 8.69498V12.475C5.005 12.955 4.615 13.35 4.13 13.35C3.645 13.35 3.255 13.74 3.255 14.225V17.135C3.255 17.615 3.645 18.01 4.13 18.01H19.88C20.365 18.01 20.755 17.62 20.755 17.135V14.225C20.755 13.745 20.365 13.35 19.88 13.35C19.395 13.35 19.005 12.96 19.005 12.475H19Z" stroke="white" stroke-width="1.5" stroke-linecap="round" stroke-linejoin="round"/>
<path d="M8.5 18H15.5C15.5 19.93 13.93 21.5 12 21.5C10.07 21.5 8.5 19.93 8.5 18Z" stroke="white" stroke-width="1.5" stroke-linecap="round" stroke-linejoin="round"/>
</svg>
