<svg width="24" height="24" viewBox="0 0 24 24" fill="none" xmlns="http://www.w3.org/2000/svg">
<path d="M12 2.47498C6.755 2.47498 2.5 6.19497 2.5 10.785C2.5 13.14 3.625 15.265 5.425 16.775C5.425 16.785 5.415 16.79 5.415 16.8L4.525 19.24C4.22 20.075 5.13 20.835 5.895 20.385L8.9 18.63C9.87 18.925 10.91 19.09 12 19.09C17.245 19.09 21.5 15.37 21.5 10.78C21.5 6.18998 17.245 2.47498 12 2.47498Z" stroke="white" stroke-width="1.5" stroke-linecap="round" stroke-linejoin="round"/>
<path d="M8 12C8.55228 12 9 11.5523 9 11C9 10.4477 8.55228 10 8 10C7.44772 10 7 10.4477 7 11C7 11.5523 7.44772 12 8 12Z" fill="white"/>
<path d="M12 12C12.5523 12 13 11.5523 13 11C13 10.4477 12.5523 10 12 10C11.4477 10 11 10.4477 11 11C11 11.5523 11.4477 12 12 12Z" fill="white"/>
<path d="M16 12C16.5523 12 17 11.5523 17 11C17 10.4477 16.5523 10 16 10C15.4477 10 15 10.4477 15 11C15 11.5523 15.4477 12 16 12Z" fill="white"/>
</svg>
