<svg width="24" height="24" viewBox="0 0 24 24" fill="none" xmlns="http://www.w3.org/2000/svg">
<path d="M8.89474 14.5789C9.18421 14.5789 9.42105 14.8158 9.42105 15.1053V20.8947C9.42105 21.1842 9.18421 21.4211 8.89474 21.4211H3.10526C2.81579 21.4211 2.57895 21.1842 2.57895 20.8947V15.1053C2.57895 14.8158 2.81579 14.5789 3.10526 14.5789H8.89474ZM8.89474 13H3.10526C1.94211 13 1 13.9421 1 15.1053V20.8947C1 22.0579 1.94211 23 3.10526 23H8.89474C10.0579 23 11 22.0579 11 20.8947V15.1053C11 13.9421 10.0579 13 8.89474 13Z" fill="white"/>
<path d="M8.89474 2.57895C9.18421 2.57895 9.42105 2.81579 9.42105 3.10526V8.89474C9.42105 9.18421 9.18421 9.42105 8.89474 9.42105H3.10526C2.81579 9.42105 2.57895 9.18421 2.57895 8.89474V3.10526C2.57895 2.81579 2.81579 2.57895 3.10526 2.57895H8.89474ZM8.89474 1H3.10526C1.94211 1 1 1.94211 1 3.10526V8.89474C1 10.0579 1.94211 11 3.10526 11H8.89474C10.0579 11 11 10.0579 11 8.89474V3.10526C11 1.94211 10.0579 1 8.89474 1Z" fill="white"/>
<path d="M20.8947 14.5789C21.1842 14.5789 21.4211 14.8158 21.4211 15.1053V20.8947C21.4211 21.1842 21.1842 21.4211 20.8947 21.4211H15.1053C14.8158 21.4211 14.5789 21.1842 14.5789 20.8947V15.1053C14.5789 14.8158 14.8158 14.5789 15.1053 14.5789H20.8947ZM20.8947 13H15.1053C13.9421 13 13 13.9421 13 15.1053V20.8947C13 22.0579 13.9421 23 15.1053 23H20.8947C22.0579 23 23 22.0579 23 20.8947V15.1053C23 13.9421 22.0579 13 20.8947 13Z" fill="white"/>
<path d="M20.8947 2.57895C21.1842 2.57895 21.4211 2.81579 21.4211 3.10526V8.89474C21.4211 9.18421 21.1842 9.42105 20.8947 9.42105H15.1053C14.8158 9.42105 14.5789 9.18421 14.5789 8.89474V3.10526C14.5789 2.81579 14.8158 2.57895 15.1053 2.57895H20.8947ZM20.8947 1H15.1053C13.9421 1 13 1.94211 13 3.10526V8.89474C13 10.0579 13.9421 11 15.1053 11H20.8947C22.0579 11 23 10.0579 23 8.89474V3.10526C23 1.94211 22.0579 1 20.8947 1Z" fill="white"/>
</svg>
