<svg width="24" height="24" viewBox="0 0 24 24" fill="none" xmlns="http://www.w3.org/2000/svg">
<path d="M16.93 3.79497L19.76 6.62497L8.61004 17.775L4.36504 19.19L5.78004 14.945L16.93 3.79497ZM16.93 2.03497C16.705 2.03497 16.48 2.11997 16.31 2.28997L4.61504 13.99C4.52004 14.085 4.44504 14.205 4.40504 14.33L2.55004 19.9C2.35504 20.49 2.81004 21.055 3.37504 21.055C3.46504 21.055 3.56004 21.04 3.65504 21.01L9.22504 19.155C9.35504 19.11 9.47004 19.04 9.56504 18.945L21.265 7.24497C21.605 6.90497 21.605 6.34997 21.265 6.00997L17.555 2.29997C17.385 2.12997 17.16 2.04497 16.935 2.04497L16.93 2.03497Z" fill="white"/>
<path d="M15.135 4.495L19.025 8.385" stroke="white" stroke-width="1.5" stroke-miterlimit="10"/>
</svg>
