<svg width="24" height="24" viewBox="0 0 24 24" fill="none" xmlns="http://www.w3.org/2000/svg">
<path d="M20.5 3.5V20.5H3.5V3.5H20.5ZM20.5 2H3.5C2.67 2 2 2.67 2 3.5V20.5C2 21.33 2.67 22 3.5 22H20.5C21.33 22 22 21.33 22 20.5V3.5C22 2.67 21.33 2 20.5 2Z" fill="white"/>
<path d="M16.5 6.5C17.325 6.5 18 7.175 18 8C18 8.825 17.325 9.5 16.5 9.5C15.675 9.5 15 8.825 15 8C15 7.175 15.675 6.5 16.5 6.5ZM16.5 5C14.845 5 13.5 6.345 13.5 8C13.5 9.655 14.845 11 16.5 11C18.155 11 19.5 9.655 19.5 8C19.5 6.345 18.155 5 16.5 5Z" fill="white"/>
<path d="M2.5 16L8.31 11.435C8.965 10.92 9.915 11.04 10.425 11.695L18 21.5" stroke="white" stroke-width="1.5" stroke-linejoin="round"/>
<path d="M14 16.5L21.5 13.5" stroke="white" stroke-width="1.5" stroke-linejoin="round"/>
</svg>
