<svg width="24" height="24" viewBox="0 0 24 24" fill="none" xmlns="http://www.w3.org/2000/svg">
<path d="M19.995 5.95999C17.755 3.99499 14.325 4.24499 12.22 6.34999L12.01 6.55999L11.82 6.36999C9.70003 4.24999 6.24503 3.98999 4.00503 5.97999C2.62003 7.20499 1.92003 9.06999 2.16003 10.905C2.51003 13.58 5.04503 15.42 6.83003 17.205C8.18003 18.555 9.53003 19.905 10.88 21.255C11.505 21.88 12.515 21.88 13.14 21.255C14.495 19.9 15.85 18.545 17.205 17.185C18.44 15.95 19.975 14.745 20.95 13.295C22.51 10.985 22.085 7.79499 19.995 5.95999Z" fill="currentColor"/>
</svg>
