<svg width="24" height="24" viewBox="0 0 24 24" fill="none" xmlns="http://www.w3.org/2000/svg">
<path d="M19.61 5.64501C17.46 3.75501 14.165 3.99501 12.14 6.02001L11.935 6.22501L11.75 6.04001C9.71501 4.00501 6.39501 3.75501 4.24001 5.66501C2.91001 6.84501 2.24001 8.63501 2.47001 10.4C2.81001 12.97 5.24001 14.74 6.95501 16.455C8.25001 17.75 9.55001 19.05 10.845 20.345C11.445 20.945 12.415 20.945 13.015 20.345C14.315 19.04 15.62 17.74 16.92 16.435C18.105 15.245 19.58 14.09 20.52 12.7C22.02 10.48 21.61 7.41501 19.6 5.65001L19.61 5.64501Z" stroke="white" stroke-width="1.5" stroke-miterlimit="10"/>
</svg>
