<svg width="24" height="24" viewBox="0 0 24 24" fill="none" xmlns="http://www.w3.org/2000/svg">
<path d="M14.75 5.5C15.025 5.5 15.25 5.725 15.25 6C15.25 7.105 16.145 8 17.25 8H20C20.275 8 20.5 8.225 20.5 8.5V20C20.5 20.275 20.275 20.5 20 20.5H4C3.725 20.5 3.5 20.275 3.5 20V8.5C3.5 8.225 3.725 8 4 8H6.75C7.855 8 8.75 7.105 8.75 6C8.75 5.725 8.975 5.5 9.25 5.5H14.75ZM14.75 4H9.25C8.145 4 7.25 4.895 7.25 6C7.25 6.275 7.025 6.5 6.75 6.5H4C2.895 6.5 2 7.395 2 8.5V20C2 21.105 2.895 22 4 22H20C21.105 22 22 21.105 22 20V8.5C22 7.395 21.105 6.5 20 6.5H17.25C16.975 6.5 16.75 6.275 16.75 6C16.75 4.895 15.855 4 14.75 4Z" fill="white"/>
<path d="M12 11C13.515 11 14.75 12.235 14.75 13.75C14.75 15.265 13.515 16.5 12 16.5C10.485 16.5 9.25 15.265 9.25 13.75C9.25 12.235 10.485 11 12 11ZM12 9.5C9.655 9.5 7.75 11.405 7.75 13.75C7.75 16.095 9.655 18 12 18C14.345 18 16.25 16.095 16.25 13.75C16.25 11.405 14.345 9.5 12 9.5Z" fill="white"/>
</svg>
