<svg width="24" height="24" viewBox="0 0 24 24" fill="none" xmlns="http://www.w3.org/2000/svg">
<circle cx="12" cy="12" r="7.8" stroke="white" stroke-width="1.6"/>
<path d="M11.2 8C11.2 8.44183 11.5582 8.8 12 8.8C12.4418 8.8 12.8 8.44183 12.8 8H11.2ZM11.2 4V8H12.8V4H11.2Z" fill="white"/>
<path d="M16 11.2C15.5582 11.2 15.2 11.5582 15.2 12C15.2 12.4418 15.5582 12.8 16 12.8V11.2ZM20 11.2H16V12.8H20V11.2Z" fill="white"/>
<path d="M8 12.8C8.44183 12.8 8.8 12.4418 8.8 12C8.8 11.5582 8.44183 11.2 8 11.2L8 12.8ZM4 12.8L8 12.8L8 11.2L4 11.2L4 12.8Z" fill="white"/>
<path d="M12.8 16C12.8 15.5582 12.4418 15.2 12 15.2C11.5582 15.2 11.2 15.5582 11.2 16L12.8 16ZM12.8 20L12.8 16L11.2 16L11.2 20L12.8 20Z" fill="white"/>
</svg>
