<svg width="24" height="24" viewBox="0 0 24 24" fill="none" xmlns="http://www.w3.org/2000/svg">
<path d="M17.16 6.355V9H6.83496V6.13C6.83496 3.57 9.14496 1.5 11.995 1.5C14.845 1.5 17.155 3.575 17.155 6.13V6.35" stroke="white" stroke-width="1.5" stroke-miterlimit="10"/>
<path d="M20 10V20.5H4V10H20ZM20 8.5H4C3.17 8.5 2.5 9.17 2.5 10V20.5C2.5 21.33 3.17 22 4 22H20C20.83 22 21.5 21.33 21.5 20.5V10C21.5 9.17 20.83 8.5 20 8.5Z" fill="white"/>
<path d="M12 15.5C12.6904 15.5 13.25 14.9404 13.25 14.25C13.25 13.5596 12.6904 13 12 13C11.3096 13 10.75 13.5596 10.75 14.25C10.75 14.9404 11.3096 15.5 12 15.5Z" fill="white"/>
<path d="M12.125 14.25H11.875C11.5989 14.25 11.375 14.4739 11.375 14.75V17.5C11.375 17.7761 11.5989 18 11.875 18H12.125C12.4011 18 12.625 17.7761 12.625 17.5V14.75C12.625 14.4739 12.4011 14.25 12.125 14.25Z" fill="white"/>
</svg>
