<svg width="24" height="24" viewBox="0 0 24 24" fill="none" xmlns="http://www.w3.org/2000/svg">
<path d="M12 7C13.1 7 14 7.9 14 9C14 10.1 13.1 11 12 11C10.9 11 10 10.1 10 9C10 7.9 10.9 7 12 7ZM12 5C9.79333 5 8 6.79333 8 9C8 11.2067 9.79333 13 12 13C14.2067 13 16 11.2067 16 9C16 6.79333 14.2067 5 12 5Z" fill="white"/>
<path d="M12 2.65041C15.9869 2.65041 19.2307 5.64866 19.2307 9.34009C19.2307 15.5951 14.9076 19.4846 12.3362 21.2451C12.2123 21.3276 12.0826 21.3496 12 21.3496C11.9174 21.3496 11.7877 21.3331 11.6638 21.2451C9.0865 19.4846 4.76933 15.5896 4.76933 9.34009C4.76933 5.65416 8.01311 2.65041 12 2.65041ZM12 1C7.02818 1 3 4.73543 3 9.34009C3 16.4809 8.09567 20.849 10.6199 22.5764C11.0328 22.857 11.5164 23 12 23C12.4836 23 12.9731 22.857 13.3801 22.5764C15.9043 20.849 21 16.4754 21 9.34009C21 4.73543 16.9718 1 12 1Z" fill="white"/>
</svg>
