<svg width="24" height="24" viewBox="0 0 24 24" fill="none" xmlns="http://www.w3.org/2000/svg">
<path d="M11.5 2.57143C13.6686 2.57143 15.4286 4.33143 15.4286 6.5C15.4286 8.66857 13.6686 10.4286 11.5 10.4286C9.33143 10.4286 7.57143 8.66857 7.57143 6.5C7.57143 4.33143 9.33143 2.57143 11.5 2.57143ZM11.5 1C8.4619 1 6 3.4619 6 6.5C6 9.5381 8.4619 12 11.5 12C14.5381 12 17 9.5381 17 6.5C17 3.4619 14.5381 1 11.5 1Z" fill="white"/>
<path d="M11.4971 12.8571C16.1616 12.8571 20.1623 16.3919 21.2197 21.4495C21.2608 21.6476 21.1845 21.8024 21.114 21.9014C21.0611 21.9757 20.9025 22.1429 20.6322 22.1429H2.35602C2.09166 22.1429 1.93304 21.9757 1.87429 21.9014C1.8038 21.8086 1.72743 21.6538 1.76855 21.4495C2.83187 16.3919 6.82667 12.8571 11.4912 12.8571M11.4971 11C5.92784 11 1.25745 15.29 0.0531349 21.0471C-0.264099 22.57 0.881468 24 2.36189 24H20.6381C22.1185 24 23.2641 22.57 22.9469 21.0471C21.7367 15.29 17.0722 11 11.5029 11H11.4971Z" fill="white"/>
</svg>
