<svg width="24" height="24" viewBox="0 0 24 24" fill="none" xmlns="http://www.w3.org/2000/svg">
<path d="M10.5 3.45502C12.37 3.45502 14.13 4.18502 15.45 5.50502C18.18 8.23502 18.18 12.675 15.45 15.405C14.13 16.725 12.37 17.455 10.5 17.455C8.63 17.455 6.87 16.725 5.55 15.405C2.82 12.675 2.82 8.23502 5.55 5.50502C6.87 4.18502 8.63 3.45502 10.5 3.45502ZM10.5 1.95502C8.325 1.95502 6.15 2.78502 4.49 4.44502C1.17 7.76502 1.17 13.145 4.49 16.465C6.15 18.125 8.325 18.955 10.5 18.955C12.675 18.955 14.85 18.125 16.51 16.465C19.83 13.145 19.83 7.76502 16.51 4.44502C14.85 2.78502 12.675 1.95502 10.5 1.95502Z" fill="white"/>
<path d="M16.275 16.225L21.525 21.475" stroke="white" stroke-width="1.5" stroke-miterlimit="10" stroke-linecap="round"/>
</svg>
