<svg width="24" height="24" viewBox="0 0 24 24" fill="none" xmlns="http://www.w3.org/2000/svg">
<path d="M12.055 3.05499C12.265 3.05499 12.775 3.11999 12.995 3.70999C13.445 4.92499 14.62 5.74499 15.915 5.74499C16.365 5.74499 16.805 5.64999 17.215 5.45999C17.36 5.39499 17.505 5.35999 17.645 5.35999C17.975 5.35999 18.295 5.54499 18.485 5.84499C18.615 6.04999 18.73 6.37499 18.54 6.78999C18.18 7.57499 18.16 8.48499 18.49 9.27999C18.82 10.08 19.475 10.71 20.285 11.01C20.875 11.23 20.94 11.74 20.94 11.95C20.94 12.16 20.875 12.67 20.285 12.89C19.475 13.19 18.82 13.82 18.49 14.62C18.16 15.42 18.175 16.325 18.54 17.11C18.73 17.525 18.615 17.85 18.485 18.055C18.295 18.355 17.97 18.54 17.645 18.54C17.505 18.54 17.36 18.505 17.215 18.44C16.805 18.25 16.365 18.155 15.915 18.155C14.62 18.155 13.445 18.97 12.995 20.19C12.775 20.78 12.265 20.845 12.055 20.845C11.845 20.845 11.335 20.78 11.115 20.19C10.665 18.975 9.49003 18.155 8.19503 18.155C7.74503 18.155 7.30503 18.25 6.89503 18.44C6.75003 18.505 6.60503 18.54 6.46503 18.54C6.13503 18.54 5.81503 18.355 5.62503 18.055C5.49503 17.85 5.38003 17.525 5.57003 17.11C5.93003 16.325 5.95003 15.415 5.62003 14.62C5.29003 13.82 4.63503 13.19 3.82503 12.89C3.23503 12.67 3.17003 12.16 3.17003 11.95C3.17003 11.74 3.23503 11.23 3.82503 11.01C4.63503 10.71 5.29003 10.08 5.62003 9.27999C5.95003 8.47999 5.93503 7.57499 5.57003 6.78999C5.38003 6.37499 5.49503 6.04999 5.62503 5.84499C5.81503 5.54499 6.14003 5.35999 6.46503 5.35999C6.60503 5.35999 6.75003 5.39499 6.89503 5.45999C7.30503 5.64999 7.74503 5.74499 8.19503 5.74499C9.49003 5.74499 10.665 4.92999 11.115 3.70999C11.335 3.11999 11.845 3.05499 12.055 3.05499ZM12.055 1.55499C11.085 1.55499 10.11 2.09999 9.71003 3.18999C9.47003 3.84499 8.85003 4.24499 8.19503 4.24499C7.97003 4.24499 7.74003 4.19999 7.52003 4.09499C7.16503 3.92999 6.80503 3.85499 6.46003 3.85499C4.76503 3.85499 3.39503 5.65499 4.20003 7.40999C4.59503 8.26499 4.17503 9.26999 3.29503 9.59499C1.11503 10.4 1.11503 13.48 3.29503 14.285C4.17503 14.61 4.59503 15.62 4.20003 16.47C3.39503 18.225 4.76503 20.025 6.46003 20.025C6.80503 20.025 7.16003 19.95 7.52003 19.785C7.74003 19.685 7.97003 19.635 8.19503 19.635C8.84503 19.635 9.46503 20.035 9.71003 20.69C10.115 21.78 11.085 22.325 12.055 22.325C13.025 22.325 14 21.78 14.4 20.69C14.64 20.035 15.26 19.635 15.915 19.635C16.14 19.635 16.37 19.68 16.59 19.785C16.945 19.95 17.305 20.025 17.65 20.025C19.345 20.025 20.715 18.225 19.91 16.47C19.515 15.615 19.935 14.61 20.815 14.285C22.995 13.48 22.995 10.4 20.815 9.59499C19.935 9.26999 19.515 8.25999 19.91 7.40999C20.715 5.65499 19.345 3.85499 17.65 3.85499C17.305 3.85499 16.95 3.92999 16.59 4.09499C16.37 4.19499 16.14 4.24499 15.915 4.24499C15.265 4.24499 14.645 3.84499 14.4 3.18999C13.995 2.09999 13.025 1.55499 12.055 1.55499Z" fill="white"/>
<path d="M12.055 9.75C13.265 9.75 14.25 10.735 14.25 11.945C14.25 13.155 13.265 14.14 12.055 14.14C10.845 14.14 9.85999 13.155 9.85999 11.945C9.85999 10.735 10.845 9.75 12.055 9.75ZM12.055 8.25C10.015 8.25 8.35999 9.905 8.35999 11.945C8.35999 13.985 10.015 15.64 12.055 15.64C14.095 15.64 15.75 13.985 15.75 11.945C15.75 9.905 14.095 8.25 12.055 8.25Z" fill="white"/>
</svg>
