<svg width="24" height="24" viewBox="0 0 24 24" fill="none" xmlns="http://www.w3.org/2000/svg">
<path d="M19.1098 3.68027L20.3279 4.89779L13.6395 11.5829L11.8145 12.1894L12.4214 10.3654L19.1098 3.68027ZM19.1098 2.00449C18.9704 2.00449 18.8266 2.05841 18.7187 2.16623L11.3381 9.54324C11.2796 9.60165 11.2302 9.67802 11.2032 9.75889L10.0301 13.2722C9.9042 13.6451 10.1919 14 10.5515 14C10.6099 14 10.6683 13.991 10.7268 13.9686L14.2418 12.796C14.3227 12.769 14.3991 12.7241 14.4575 12.6612L21.8382 5.28416C22.0539 5.06851 22.0539 4.71808 21.8382 4.50243L19.4963 2.16174C19.3885 2.05391 19.2491 2 19.1053 2L19.1098 2.00449Z" fill="currentColor"/>
<path d="M17 4L19.73 6.73" stroke="currentColor" stroke-width="1.5" stroke-miterlimit="10"/>
<path d="M13.524 5H5.14413C4.51397 5 4 5.52957 4 6.1827V18.8173C4 19.4704 4.5095 20 5.14413 20H18.8559C19.486 20 20 19.4704 20 18.8173V8.55251" stroke="currentColor" stroke-width="1.5" stroke-miterlimit="10" stroke-linecap="round"/>
</svg>
