<svg width="154" height="54" viewBox="0 0 154 54" fill="none" xmlns="http://www.w3.org/2000/svg">
<path d="M32.58 0.71C33.06 1.19 33.29 1.79 33.29 2.53C33.29 3.27 33.05 3.87 32.58 4.35C32.11 4.82 31.5 5.06 30.76 5.06H19.42V38.46C19.42 39.23 19.16 39.89 18.63 40.41C18.1 40.93 17.45 41.2 16.68 41.2C15.91 41.2 15.25 40.94 14.73 40.41C14.2 39.88 13.94 39.23 13.94 38.46V5.06H2.53C1.79 5.06 1.19 4.82 0.71 4.35C0.24 3.87 0 3.27 0 2.53C0 1.79 0.24 1.19 0.71 0.71C1.19 0.23 1.79 0 2.53 0H30.76C31.5 0 32.11 0.24 32.58 0.71Z" fill="black"/>
<path d="M50.5901 12.87C51.6501 13.43 52.1701 14.14 52.1701 14.98C52.1701 15.22 52.1501 15.4 52.1201 15.51C51.8001 16.64 51.1001 17.2 50.0101 17.2C49.8301 17.2 49.5701 17.17 49.2201 17.09C47.8101 16.85 46.6701 16.72 45.7901 16.72C43.2601 16.72 41.2201 17.3 39.6701 18.46C38.1201 19.62 37.3501 21.19 37.3501 23.16V38.57C37.3501 39.41 37.1301 40.06 36.6901 40.52C36.2501 40.98 35.5901 41.21 34.7101 41.21C33.8301 41.21 33.2101 40.99 32.7601 40.55C32.3001 40.11 32.0801 39.45 32.0801 38.57V14.98C32.0801 14.13 32.3101 13.49 32.7601 13.03C33.2201 12.57 33.8701 12.34 34.7101 12.34C36.4701 12.34 37.3501 13.22 37.3501 14.98V15.98C38.4101 14.75 39.7101 13.78 41.2601 13.08C42.8101 12.38 44.4601 12.03 46.2201 12.03C48.0801 12.03 49.5401 12.31 50.6001 12.87H50.5901Z" fill="black"/>
<path d="M58.6799 6.62018C57.9999 5.93018 57.6499 5.12018 57.6499 4.17018C57.6499 3.22018 57.9899 2.40018 58.6799 1.71018C59.3699 1.03018 60.1899 0.680176 61.1299 0.680176C62.0699 0.680176 62.8999 1.02018 63.5799 1.71018C64.2599 2.40018 64.6099 3.22018 64.6099 4.17018C64.6099 5.12018 64.2699 5.93018 63.5799 6.62018C62.8899 7.31018 62.0699 7.65018 61.1299 7.65018C60.1899 7.65018 59.3599 7.31018 58.6799 6.62018ZM59.2099 40.4402C58.6999 39.9302 58.4499 39.2902 58.4499 38.5102V15.0302C58.4499 14.2202 58.6999 13.5702 59.2099 13.0802C59.7199 12.5902 60.3599 12.3402 61.1399 12.3402C61.9199 12.3402 62.5999 12.5902 63.0899 13.0802C63.5799 13.5702 63.8299 14.2302 63.8299 15.0302V38.5102C63.8299 39.2902 63.5899 39.9302 63.0899 40.4402C62.5999 40.9502 61.9499 41.2002 61.1399 41.2002C60.3299 41.2002 59.7199 40.9502 59.2099 40.4402Z" fill="black"/>
<path d="M93.2401 14.0601C95.4701 15.3401 97.2201 17.1001 98.4901 19.3401C99.7601 21.5701 100.39 24.0601 100.39 26.8001C100.39 29.5401 99.8001 32.0301 98.6201 34.2701C97.4401 36.5101 95.8201 38.2501 93.7701 39.5201C91.7101 40.7901 89.4201 41.4201 86.8801 41.4201C84.8401 41.4201 82.9401 41.0001 81.1801 40.1501C79.4201 39.3101 77.9301 38.1301 76.6901 36.6201V50.8701C76.6901 51.6801 76.4401 52.3301 75.9501 52.8201C75.4601 53.3101 74.8101 53.5601 74.0001 53.5601C73.1901 53.5601 72.5901 53.3201 72.0701 52.8201C71.5601 52.3301 71.3101 51.6801 71.3101 50.8701V26.8101C71.3101 24.0701 71.9501 21.5801 73.2401 19.3501C74.5201 17.1101 76.2701 15.3601 78.4601 14.0701C80.6501 12.7801 83.1101 12.1401 85.8201 12.1401C88.5301 12.1401 91.0001 12.7801 93.2301 14.0701L93.2401 14.0601ZM90.6001 35.3701C92.0301 34.5101 93.1501 33.3301 93.9801 31.8401C94.8101 30.3501 95.2201 28.6701 95.2201 26.8001C95.2201 24.9301 94.8101 23.2501 93.9801 21.7401C93.1501 20.2301 92.0301 19.0401 90.6001 18.1801C89.1801 17.3201 87.5801 16.8901 85.8201 16.8901C84.0601 16.8901 82.4701 17.3201 81.0401 18.1801C79.6201 19.0401 78.5001 20.2301 77.6901 21.7401C76.8801 23.2501 76.4701 24.9401 76.4701 26.8001C76.4701 28.6601 76.8701 30.3501 77.6901 31.8401C78.5001 33.3301 79.6201 34.5201 81.0401 35.3701C82.4701 36.2301 84.0601 36.6601 85.8201 36.6601C87.5801 36.6601 89.1701 36.2301 90.6001 35.3701Z" fill="black"/>
<path d="M153.07 36.6702C153.51 37.1602 153.73 37.8002 153.73 38.5702C153.73 39.3402 153.44 39.9702 152.86 40.4702C152.28 40.9602 151.53 41.2102 150.62 41.2102H149.67C147.95 41.2102 146.37 40.7602 144.95 39.8702C143.52 38.9702 142.41 37.7502 141.6 36.2002C140.79 34.6502 140.39 32.9102 140.39 30.9702V17.9402H137.96C137.22 17.9402 136.62 17.7302 136.17 17.3102C135.71 16.8802 135.49 16.3602 135.49 15.7302C135.49 15.0302 135.72 14.4602 136.17 14.0402C136.63 13.6102 137.23 13.4002 137.96 13.4002H140.39V5.80016C140.39 5.03016 140.64 4.39016 141.13 3.90016C141.62 3.41016 142.26 3.16016 143.03 3.16016C143.8 3.16016 144.44 3.41016 144.93 3.90016C145.42 4.39016 145.67 5.03016 145.67 5.80016V13.4002H150.16C150.9 13.4002 151.5 13.6102 151.95 14.0402C152.41 14.4602 152.64 15.0202 152.64 15.7302C152.64 16.3602 152.41 16.8902 151.95 17.3102C151.49 17.7302 150.9 17.9402 150.16 17.9402H145.67V30.9702C145.67 32.3802 146.06 33.5602 146.83 34.5002C147.61 35.4502 148.55 35.9302 149.68 35.9302H151.47C152.1 35.9302 152.64 36.1802 153.08 36.6702H153.07Z" fill="black"/>
<path d="M133 23.6546C133 31.295 121.567 43.8301 119 43.8301C116.042 43.8301 105 31.295 105 23.6546C105 16.0143 111.272 9.83008 119 9.83008C126.728 9.83008 133 16.0231 133 23.6546Z" fill="#FFE83F"/>
<path d="M119 28.8301C121.761 28.8301 124 26.5915 124 23.8301C124 21.0687 121.761 18.8301 119 18.8301C116.239 18.8301 114 21.0687 114 23.8301C114 26.5915 116.239 28.8301 119 28.8301Z" fill="black"/>
</svg>
